<?xml version="1.0" standalone="no"?>
<!DOCTYPE svg PUBLIC "-//W3C//DTD SVG 20010904//EN"
 "http://www.w3.org/TR/2001/REC-SVG-20010904/DTD/svg10.dtd">
<svg version="1.0" xmlns="http://www.w3.org/2000/svg"
 width="231.000000pt" height="231.000000pt" viewBox="0 0 231.000000 231.000000"
 preserveAspectRatio="xMidYMid meet">
<metadata>
Created by potrace 1.11, written by Peter Selinger 2001-2013
</metadata>
<g transform="translate(0.000000,231.000000) scale(0.100000,-0.100000)"
fill="#000000" stroke="none">
<path d="M1025 2168 c-4 -10 -15 -13 -31 -10 -13 2 -31 -1 -39 -8 -8 -6 -19
-9 -24 -6 -5 4 -12 3 -15 -2 -3 -5 -21 -7 -41 -6 -21 2 -33 -1 -30 -6 4 -6 -6
-10 -22 -10 -19 0 -24 -3 -15 -9 11 -7 10 -10 -3 -15 -24 -9 -37 -8 -31 3 4 5
-3 7 -15 4 -11 -3 -23 -12 -26 -20 -4 -10 -9 -11 -18 -3 -10 8 -19 5 -34 -11
-12 -13 -21 -19 -21 -14 0 4 -9 0 -21 -11 -12 -10 -24 -18 -28 -17 -3 2 -30
-13 -60 -32 -29 -19 -57 -33 -61 -30 -5 3 -11 -4 -15 -15 -4 -11 -21 -28 -38
-36 -17 -9 -40 -27 -50 -40 -10 -13 -25 -24 -32 -24 -8 0 -12 -8 -10 -19 2
-14 -1 -18 -10 -15 -9 4 -17 -4 -21 -20 -3 -15 -15 -31 -26 -37 -10 -6 -33
-40 -51 -77 -17 -37 -35 -70 -40 -73 -5 -4 -7 -11 -3 -17 3 -6 2 -13 -4 -17
-6 -4 -8 -10 -5 -15 3 -5 -1 -15 -9 -23 -8 -8 -13 -17 -10 -20 3 -3 0 -15 -6
-27 -13 -24 -23 -77 -24 -127 0 -17 -5 -29 -10 -26 -5 4 -7 -1 -3 -10 3 -10 3
-17 -2 -17 -4 0 -7 -21 -7 -46 1 -25 -2 -48 -7 -51 -4 -2 -5 -9 -2 -14 12 -19
14 -53 4 -66 -8 -9 -8 -13 -1 -13 6 0 9 -9 7 -20 -2 -11 1 -20 6 -20 6 0 7 -6
2 -12 -11 -19 -13 -39 -2 -32 6 3 7 -7 4 -25 -3 -16 0 -33 5 -36 6 -4 7 -11 4
-17 -4 -6 0 -15 7 -20 11 -7 11 -11 2 -15 -18 -7 -16 -24 3 -38 9 -6 16 -23
17 -38 0 -15 5 -32 13 -38 7 -6 11 -16 8 -23 -7 -18 13 -67 38 -94 12 -12 18
-22 13 -22 -4 0 0 -9 9 -19 10 -11 15 -25 11 -30 -3 -6 1 -11 9 -11 8 0 22
-15 31 -34 9 -19 23 -37 31 -40 7 -3 11 -12 8 -20 -6 -16 17 -46 34 -46 5 0
17 -11 26 -25 9 -14 23 -25 31 -25 8 0 15 -7 15 -15 0 -9 8 -19 18 -22 17 -7
28 -15 57 -40 7 -7 17 -13 21 -13 4 0 12 -7 19 -16 6 -9 42 -26 80 -39 39 -12
63 -24 54 -28 -8 -3 -9 -6 -2 -6 6 -1 15 4 18 9 3 6 11 10 16 10 6 0 8 -4 5
-9 -7 -10 27 -21 69 -21 17 0 38 -7 49 -15 13 -10 24 -11 37 -5 23 13 42 13
34 0 -4 -6 7 -9 27 -7 18 2 49 -2 69 -9 24 -8 41 -9 53 -2 12 7 22 6 32 -3 12
-10 20 -10 35 -1 15 10 19 9 19 0 0 -9 3 -9 12 0 16 16 31 15 22 0 -5 -9 -2
-9 9 1 12 10 17 10 17 1 0 -8 10 -9 30 -5 17 4 46 8 65 9 19 2 41 9 49 15 11
9 16 9 21 0 6 -8 10 -7 17 4 5 9 15 14 22 11 8 -3 17 -1 21 5 3 6 12 11 18 11
7 0 6 -4 -3 -11 -11 -8 -9 -9 10 -4 14 4 30 13 36 21 6 8 19 14 29 14 9 0 28
9 42 20 14 11 30 17 35 14 5 -4 22 6 37 20 15 15 41 28 58 30 36 5 73 23 73
36 0 4 13 11 29 15 17 3 31 14 34 26 3 11 14 19 26 19 12 0 21 5 21 10 0 6 3
9 8 8 14 -3 42 14 42 26 0 14 36 47 43 40 3 -3 4 3 4 13 -1 9 3 18 10 18 6 0
22 13 34 30 13 16 18 26 11 21 -7 -4 -12 -1 -12 8 0 9 6 16 13 16 6 1 19 16
28 35 9 19 11 32 5 29 -6 -3 -1 3 11 14 15 13 20 26 16 41 -4 15 -1 21 12 21
12 0 15 5 11 16 -4 9 -1 23 5 30 6 8 9 21 5 29 -3 8 -1 15 4 15 4 0 12 15 16
33 11 46 11 46 14 55 1 4 2 14 1 24 -1 9 3 19 9 23 14 8 13 45 -1 45 -8 0 -7
5 2 16 16 19 21 44 8 44 -11 0 -7 23 6 32 7 5 7 8 0 8 -6 0 -10 25 -10 58 1
31 -1 61 -3 66 -3 4 -5 26 -6 48 -2 22 -7 43 -12 46 -5 4 -9 14 -9 22 1 8 -5
27 -12 43 -7 15 -11 27 -9 27 3 0 -2 12 -9 27 -11 21 -12 29 -2 35 9 6 9 8 -1
8 -11 0 -62 95 -62 117 0 4 -14 21 -31 38 -18 18 -28 36 -26 47 3 11 0 18 -9
18 -8 0 -14 10 -14 26 0 16 -5 24 -12 21 -7 -2 -18 9 -25 25 -7 15 -18 27 -25
26 -7 -2 -12 3 -11 10 2 6 -5 12 -15 12 -14 0 -15 2 -2 10 13 9 13 10 0 11 -8
1 -19 1 -23 0 -5 -1 -6 3 -2 9 4 6 -7 16 -23 23 -16 7 -27 18 -24 25 2 7 -5
16 -17 19 -12 3 -21 10 -21 15 0 5 -4 7 -9 4 -5 -3 -11 1 -15 9 -3 8 -17 15
-31 15 -18 0 -25 5 -25 20 0 14 -5 18 -17 13 -10 -4 -14 -2 -9 5 7 12 -28 27
-43 18 -5 -3 -16 6 -25 19 -9 14 -21 23 -25 20 -5 -3 -22 2 -37 10 -22 11 -31
12 -43 2 -11 -9 -13 -9 -8 0 8 13 -48 33 -90 33 -13 0 -23 5 -23 10 0 6 -10 8
-24 4 -13 -3 -27 -1 -30 5 -4 5 -14 7 -22 4 -9 -3 -20 0 -25 8 -5 9 -9 10 -9
2 0 -12 -54 -12 -103 2 -16 4 -33 3 -40 -4 -13 -10 -36 -9 -69 4 -11 5 -20 2
-23 -7z m-410 -1868 c3 -6 -1 -7 -9 -4 -18 7 -21 14 -7 14 6 0 13 -4 16 -10z"/>
</g>
</svg>
